<?xml version="1.0" encoding="utf-8"?>
<!-- Generator: Adobe Illustrator 26.5.0, SVG Export Plug-In . SVG Version: 6.00 Build 0)  -->
<svg version="1.1" id="Layer_1" xmlns="http://www.w3.org/2000/svg" xmlns:xlink="http://www.w3.org/1999/xlink" x="0px" y="0px"
	 viewBox="0 0 169.4 168" style="enable-background:new 0 0 169.4 168;" xml:space="preserve">
<style type="text/css">
	.st0{stroke:#FFFFFF;stroke-miterlimit:10;}
</style>
<path class="st0" d="M88.9,53c-1.5,1.5-1.5,3.8,0,5.3s3.8,1.5,5.3,0l3.1-3.1c1.1-1.1,1.4-2.8,0.8-4.2c-2.1-4.4-3.1-9-3.1-13.6
	c0-9.4,4.1-18.2,11-24.3v24.5c0,1.2,0.6,2.4,1.6,3.1l17.8,12.3c1.3,0.9,3,0.9,4.3,0l17.8-12.3c1-0.7,1.6-1.8,1.6-3.1V13
	c6.9,6.1,11,14.9,11,24.3c0,8.7-3.4,16.8-9.5,23c-6.1,6.1-14.3,9.5-22.9,9.5h0c-3,0-8.8-1.4-10.8-2c-1.3-0.4-2.7,0-3.7,1l-11.4,11.4
	c-1.5,1.5-1.5,3.8,0,5.3c0.7,0.7,1.7,1.1,2.7,1.1s1.9-0.4,2.7-1.1l9.9-9.9c2.8,0.7,7.5,1.7,10.7,1.7h0c10.7,0,20.7-4.2,28.2-11.7
	c7.6-7.5,11.7-17.6,11.7-28.3c0-14.4-7.8-27.7-20.4-34.8c-1.2-0.6-2.6-0.6-3.7,0s-1.9,1.9-1.9,3.2v29.8l-14,9.7l-14-9.7V5.7
	c0-1.3-0.7-2.6-1.9-3.2s-2.6-0.7-3.7,0C95.3,9.6,87.5,22.9,87.5,37.3c0,4.9,0.9,9.7,2.8,14.4C90.2,51.7,88.9,53,88.9,53z"/>
<path class="st0" d="M79,102.7l-51.9,51.9c-2,1.9-4.5,3-7.3,3l0,0c-2.8,0-5.4-1.1-7.3-3s-3-4.6-3-7.3s1.1-5.3,3-7.3l44.7-44.7
	c1.5-1.5,1.5-3.8,0-5.3s-3.8-1.5-5.3,0L7.2,134.7C3.9,138,2,142.5,2,147.2c0,4.8,1.8,9.2,5.2,12.6s7.8,5.2,12.6,5.2l0,0
	c4.8,0,9.2-1.9,12.6-5.2l51.9-51.9c1.5-1.5,1.5-3.8,0-5.3S80.5,101.2,79,102.7L79,102.7z"/>
<path class="st0" d="M19.8,142.7c-1.2,0-2.4,0.5-3.2,1.3c-1.8,1.8-1.8,4.7,0,6.5c0,0,0,0,0,0c0.9,0.9,2.1,1.3,3.2,1.3
	s2.4-0.4,3.3-1.4c1.8-1.8,1.8-4.7,0-6.5C22.1,143.2,21,142.7,19.8,142.7L19.8,142.7L19.8,142.7z"/>
<path class="st0" d="M142.1,123.7c-0.4-0.4-0.9-0.7-1.4-0.9L130,119L91.2,80.2l6.3-6.3c1.5-1.5,1.5-3.8,0-5.3
	c-1.1-1.1-2.7-1.4-4.1-0.8L34.8,9.2c-3.5-3.6-8.3-5.5-13.3-5.5h0c-5,0-9.8,2-13.3,5.5c-3.6,3.6-5.5,8.3-5.5,13.3c0,5,2,9.8,5.5,13.3
	l58.6,58.6c-0.6,1.4-0.3,3,0.8,4.1c1.5,1.5,3.8,1.5,5.3,0l6.3-6.3l38.8,38.8l3.9,10.7c0.2,0.5,0.5,1,0.9,1.4l21.7,21.8
	c0.7,0.7,1.7,1.1,2.6,1.1s1.9-0.4,2.6-1.1l14.1-14.1c0.7-0.7,1.1-1.6,1.1-2.6s-0.4-1.9-1.1-2.6L142.1,123.7L142.1,123.7z M83.3,77.6
	L83.3,77.6L71.9,89L13.4,30.6c-2.1-2.1-3.3-5-3.3-8s1.2-5.9,3.3-8c2.1-2.1,5-3.3,8-3.3h0c3,0,5.9,1.2,8,3.3L87.9,73L83.3,77.6
	L83.3,77.6L83.3,77.6z M147.1,157l-18.5-18.5l-3.9-10.7c-0.2-0.5-0.5-1-0.9-1.4L84.4,87l1.5-1.5l39.3,39.3c0.4,0.4,0.9,0.7,1.4,0.9
	l10.7,3.9l18.5,18.5L147.1,157L147.1,157z"/>
<path class="st0" d="M24.1,19.9c-1.5-1.5-3.8-1.5-5.3,0c-1.5,1.5-1.5,3.8,0,5.3l51.6,51.6c0.7,0.7,1.7,1.1,2.7,1.1s1.9-0.4,2.7-1.1
	c1.5-1.5,1.5-3.8,0-5.3L24.1,19.9z"/>
</svg>
